<svg width="102" height="19" viewBox="0 0 102 19" fill="none" xmlns="http://www.w3.org/2000/svg">
<path d="M0.000461042 18.168V0.287967H3.12046L9.81646 9.38397H8.32846L14.8805 0.287967H18.0005V18.168H14.7125V4.00797L15.9845 4.31997L9.19246 13.368H8.80846L2.18446 4.31997L3.26446 4.00797V18.168H0.000461042ZM30.2303 18.456C28.9183 18.456 27.6943 18.224 26.5583 17.76C25.4223 17.296 24.4303 16.648 23.5823 15.816C22.7343 14.984 22.0703 14.008 21.5903 12.888C21.1263 11.752 20.8943 10.528 20.8943 9.21597C20.8943 7.88797 21.1263 6.66397 21.5903 5.54397C22.0543 4.42397 22.7103 3.44797 23.5583 2.61597C24.4063 1.78397 25.3983 1.14397 26.5343 0.695968C27.6703 0.231968 28.9023 -3.19481e-05 30.2303 -3.19481e-05C31.5583 -3.19481e-05 32.7903 0.231968 33.9263 0.695968C35.0623 1.15997 36.0543 1.80797 36.9023 2.63997C37.7503 3.45597 38.4063 4.42397 38.8703 5.54397C39.3503 6.66397 39.5903 7.88797 39.5903 9.21597C39.5903 10.528 39.3503 11.752 38.8703 12.888C38.3903 14.008 37.7263 14.984 36.8783 15.816C36.0303 16.648 35.0383 17.296 33.9023 17.76C32.7823 18.224 31.5583 18.456 30.2303 18.456ZM30.2303 15.48C31.1103 15.48 31.9183 15.328 32.6543 15.024C33.3903 14.704 34.0303 14.264 34.5743 13.704C35.1343 13.144 35.5583 12.48 35.8463 11.712C36.1503 10.944 36.3023 10.112 36.3023 9.21597C36.3023 8.31997 36.1503 7.49597 35.8463 6.74397C35.5583 5.97597 35.1343 5.31197 34.5743 4.75197C34.0303 4.17597 33.3903 3.73597 32.6543 3.43197C31.9183 3.12797 31.1103 2.97597 30.2303 2.97597C29.3663 2.97597 28.5663 3.12797 27.8303 3.43197C27.0943 3.73597 26.4463 4.17597 25.8863 4.75197C25.3423 5.31197 24.9183 5.97597 24.6143 6.74397C24.3103 7.49597 24.1583 8.31997 24.1583 9.21597C24.1583 10.112 24.3103 10.944 24.6143 11.712C24.9183 12.48 25.3423 13.144 25.8863 13.704C26.4463 14.264 27.0943 14.704 27.8303 15.024C28.5663 15.328 29.3663 15.48 30.2303 15.48ZM42.4926 18.168V0.287967H49.1406C50.3566 0.287967 51.4286 0.511968 52.3566 0.959969C53.3006 1.39197 54.0366 2.03197 54.5646 2.87997C55.0926 3.71197 55.3566 4.72797 55.3566 5.92797C55.3566 7.15997 55.0606 8.20797 54.4686 9.07197C53.8926 9.93597 53.1086 10.576 52.1166 10.992L56.2206 18.168H52.5246L48.1326 10.32L50.2446 11.568H45.7566V18.168H42.4926ZM45.7566 8.68797H49.1886C49.7806 8.68797 50.2926 8.57597 50.7246 8.35197C51.1566 8.11197 51.4926 7.78397 51.7326 7.36797C51.9726 6.95197 52.0926 6.47197 52.0926 5.92797C52.0926 5.36797 51.9726 4.88797 51.7326 4.48797C51.4926 4.07197 51.1566 3.75197 50.7246 3.52797C50.2926 3.28797 49.7806 3.16797 49.1886 3.16797H45.7566V8.68797ZM58.3598 18.168V0.287967H70.2398V3.16797H61.6238V7.75197H69.7598V10.632H61.6238V15.288H70.2398V18.168H58.3598ZM72.6333 18.168V0.287967H75.1773L85.0173 13.536L83.6973 13.8V0.287967H86.9613V18.168H84.3933L74.6973 4.82397L75.8973 4.55997V18.168H72.6333ZM93.5903 18.168V3.16797H88.9583V0.287967H101.438V3.16797H96.8783V18.168H93.5903Z" fill="#3563E9"/>
</svg>
