<svg width="76" height="12" viewBox="0 0 76 12" fill="none" xmlns="http://www.w3.org/2000/svg">
<path fill-rule="evenodd" clip-rule="evenodd" d="M5.50008 1.59488C5.53462 1.48536 5.60317 1.3897 5.69579 1.3218C5.7884 1.2539 5.90024 1.21729 6.01508 1.21729C6.12992 1.21729 6.24177 1.2539 6.33438 1.3218C6.42699 1.3897 6.49555 1.48536 6.53008 1.59488L7.46008 4.45488H10.4601C10.579 4.45038 10.6962 4.48495 10.7936 4.5533C10.8911 4.62165 10.9635 4.72002 10.9997 4.83339C11.036 4.94676 11.0342 5.06888 10.9945 5.18111C10.9549 5.29333 10.8795 5.38949 10.7801 5.45488L8.34508 7.21988L9.27508 10.0849C9.31186 10.194 9.31279 10.312 9.27773 10.4217C9.24267 10.5314 9.17345 10.6271 9.0802 10.6946C8.98694 10.7622 8.87452 10.7982 8.75936 10.7973C8.6442 10.7965 8.53233 10.7588 8.44008 10.6899L6.00008 8.90488L3.56508 10.6749C3.47284 10.7438 3.36097 10.7815 3.2458 10.7823C3.13064 10.7832 3.01823 10.7472 2.92497 10.6796C2.83171 10.6121 2.7625 10.5164 2.72744 10.4067C2.69238 10.297 2.6933 10.179 2.73008 10.0699L3.66008 7.20488L1.22508 5.43988C1.12562 5.37449 1.05031 5.27833 1.01064 5.16611C0.970978 5.05388 0.969144 4.93176 1.00542 4.81839C1.0417 4.70502 1.11409 4.60665 1.21154 4.5383C1.30899 4.46995 1.42614 4.43538 1.54508 4.43988H4.54508L5.50008 1.59488Z" fill="#FBAD39"/>
<path fill-rule="evenodd" clip-rule="evenodd" d="M21.5001 1.59488C21.5346 1.48536 21.6032 1.3897 21.6958 1.3218C21.7884 1.2539 21.9002 1.21729 22.0151 1.21729C22.1299 1.21729 22.2418 1.2539 22.3344 1.3218C22.427 1.3897 22.4955 1.48536 22.5301 1.59488L23.4601 4.45488H26.4601C26.579 4.45038 26.6962 4.48495 26.7936 4.5533C26.8911 4.62165 26.9635 4.72002 26.9997 4.83339C27.036 4.94676 27.0342 5.06888 26.9945 5.18111C26.9549 5.29333 26.8795 5.38949 26.7801 5.45488L24.3451 7.21988L25.2751 10.0849C25.3119 10.194 25.3128 10.312 25.2777 10.4217C25.2427 10.5314 25.1735 10.6271 25.0802 10.6946C24.9869 10.7622 24.8745 10.7982 24.7594 10.7973C24.6442 10.7965 24.5323 10.7588 24.4401 10.6899L22.0001 8.90488L19.5651 10.6749C19.4728 10.7438 19.361 10.7815 19.2458 10.7823C19.1306 10.7832 19.0182 10.7472 18.925 10.6796C18.8317 10.6121 18.7625 10.5164 18.7274 10.4067C18.6924 10.297 18.6933 10.179 18.7301 10.0699L19.6601 7.20488L17.2251 5.43988C17.1256 5.37449 17.0503 5.27833 17.0106 5.16611C16.971 5.05388 16.9691 4.93176 17.0054 4.81839C17.0417 4.70502 17.1141 4.60665 17.2115 4.5383C17.309 4.46995 17.4261 4.43538 17.5451 4.43988H20.5451L21.5001 1.59488Z" fill="#FBAD39"/>
<path fill-rule="evenodd" clip-rule="evenodd" d="M37.5001 1.59488C37.5346 1.48536 37.6032 1.3897 37.6958 1.3218C37.7884 1.2539 37.9002 1.21729 38.0151 1.21729C38.1299 1.21729 38.2418 1.2539 38.3344 1.3218C38.427 1.3897 38.4955 1.48536 38.5301 1.59488L39.4601 4.45488H42.4601C42.579 4.45038 42.6962 4.48495 42.7936 4.5533C42.8911 4.62165 42.9635 4.72002 42.9997 4.83339C43.036 4.94676 43.0342 5.06888 42.9945 5.18111C42.9549 5.29333 42.8795 5.38949 42.7801 5.45488L40.3451 7.21988L41.2751 10.0849C41.3119 10.194 41.3128 10.312 41.2777 10.4217C41.2427 10.5314 41.1735 10.6271 41.0802 10.6946C40.9869 10.7622 40.8745 10.7982 40.7594 10.7973C40.6442 10.7965 40.5323 10.7588 40.4401 10.6899L38.0001 8.90488L35.5651 10.6749C35.4728 10.7438 35.361 10.7815 35.2458 10.7823C35.1306 10.7832 35.0182 10.7472 34.925 10.6796C34.8317 10.6121 34.7625 10.5164 34.7274 10.4067C34.6924 10.297 34.6933 10.179 34.7301 10.0699L35.6601 7.20488L33.2251 5.43988C33.1256 5.37449 33.0503 5.27833 33.0106 5.16611C32.971 5.05388 32.9691 4.93176 33.0054 4.81839C33.0417 4.70502 33.1141 4.60665 33.2115 4.5383C33.309 4.46995 33.4261 4.43538 33.5451 4.43988H36.5451L37.5001 1.59488Z" fill="#FBAD39"/>
<path fill-rule="evenodd" clip-rule="evenodd" d="M53.5001 1.59488C53.5346 1.48536 53.6032 1.3897 53.6958 1.3218C53.7884 1.2539 53.9002 1.21729 54.0151 1.21729C54.1299 1.21729 54.2418 1.2539 54.3344 1.3218C54.427 1.3897 54.4955 1.48536 54.5301 1.59488L55.4601 4.45488H58.4601C58.579 4.45038 58.6962 4.48495 58.7936 4.5533C58.8911 4.62165 58.9635 4.72002 58.9997 4.83339C59.036 4.94676 59.0342 5.06888 58.9945 5.18111C58.9549 5.29333 58.8795 5.38949 58.7801 5.45488L56.3451 7.21988L57.2751 10.0849C57.3119 10.194 57.3128 10.312 57.2777 10.4217C57.2427 10.5314 57.1735 10.6271 57.0802 10.6946C56.9869 10.7622 56.8745 10.7982 56.7594 10.7973C56.6442 10.7965 56.5323 10.7588 56.4401 10.6899L54.0001 8.90488L51.5651 10.6749C51.4728 10.7438 51.361 10.7815 51.2458 10.7823C51.1306 10.7832 51.0182 10.7472 50.925 10.6796C50.8317 10.6121 50.7625 10.5164 50.7274 10.4067C50.6924 10.297 50.6933 10.179 50.7301 10.0699L51.6601 7.20488L49.2251 5.43988C49.1256 5.37449 49.0503 5.27833 49.0106 5.16611C48.971 5.05388 48.9691 4.93176 49.0054 4.81839C49.0417 4.70502 49.1141 4.60665 49.2115 4.5383C49.309 4.46995 49.4261 4.43538 49.5451 4.43988H52.5451L53.5001 1.59488Z" fill="#FBAD39"/>
<g clip-path="url(#clip0_1_46980)">
<path fill-rule="evenodd" clip-rule="evenodd" d="M69.5001 1.59488C69.5346 1.48536 69.6032 1.3897 69.6958 1.3218C69.7884 1.2539 69.9002 1.21729 70.0151 1.21729C70.1299 1.21729 70.2418 1.2539 70.3344 1.3218C70.427 1.3897 70.4955 1.48536 70.5301 1.59488L71.4601 4.45488H74.4601C74.579 4.45038 74.6962 4.48495 74.7936 4.5533C74.8911 4.62165 74.9635 4.72002 74.9997 4.83339C75.036 4.94676 75.0342 5.06888 74.9945 5.18111C74.9549 5.29333 74.8795 5.38949 74.7801 5.45488L72.3451 7.21988L73.2751 10.0849C73.3119 10.194 73.3128 10.312 73.2777 10.4217C73.2427 10.5314 73.1735 10.6271 73.0802 10.6946C72.9869 10.7622 72.8745 10.7982 72.7594 10.7973C72.6442 10.7965 72.5323 10.7588 72.4401 10.6899L70.0001 8.90488L67.5651 10.6749C67.4728 10.7438 67.361 10.7815 67.2458 10.7823C67.1306 10.7832 67.0182 10.7472 66.925 10.6796C66.8317 10.6121 66.7625 10.5164 66.7274 10.4067C66.6924 10.297 66.6933 10.179 66.7301 10.0699L67.6601 7.20488L65.2251 5.43988C65.1256 5.37449 65.0503 5.27833 65.0106 5.16611C64.971 5.05388 64.9691 4.93176 65.0054 4.81839C65.0417 4.70502 65.1141 4.60665 65.2115 4.5383C65.309 4.46995 65.4261 4.43538 65.5451 4.43988H68.5451L69.5001 1.59488Z" stroke="#C3D4E9" stroke-width="1.5" stroke-linecap="round" stroke-linejoin="round"/>
</g>
<defs>
<clipPath id="clip0_1_46980">
<rect width="12" height="12" fill="white" transform="translate(64)"/>
</clipPath>
</defs>
</svg>
